<svg width="2048.4" height="465.57" viewBox="0 0 2048.4 465.57" xmlns="http://www.w3.org/2000/svg" xmlns:xlink="http://www.w3.org/1999/xlink" id="Layer_1" overflow="hidden"><defs></defs><path d="M235.79 193.04 183.71 159.22C180.39 157.06 180.39 152.2 183.71 150.05L235.79 116.23C239.47 113.84 244.21 113.84 247.88 116.23L299.96 150.05C303.28 152.21 303.28 157.07 299.96 159.22L247.88 193.04C244.2 195.43 239.46 195.43 235.79 193.04Z" fill="#0096DC"/><g><g><path d="M241.22 310.68 189.14 276.86C185.82 274.7 185.82 269.84 189.14 267.69L241.22 233.87C244.9 231.48 249.64 231.48 253.31 233.87L305.39 267.69C308.71 269.85 308.71 274.71 305.39 276.86L253.31 310.68C249.63 313.07 244.89 313.07 241.22 310.68Z" fill="#FAAF00"/><path d="M147.97 250.34 95.89 216.52C92.57 214.36 92.57 209.5 95.89 207.35L147.97 173.53C151.65 171.14 156.39 171.14 160.06 173.53L212.14 207.35C215.46 209.51 215.46 214.37 212.14 216.52L160.06 250.34C156.38 252.73 151.64 252.73 147.97 250.34Z" fill="#FAAF00"/><path d="M119.04 147 66.96 113.18C63.28 110.79 58.54 110.79 54.87 113.18L2.78 147C-0.54 149.16-0.54 154.02 2.78 156.17L54.86 189.99C58.54 192.38 63.28 192.38 66.95 189.99L119.03 156.17C122.35 154.01 122.35 149.15 119.03 147Z" fill="#FAAF00"/><path d="M142.68 132.7 90.6 98.88C87.28 96.72 87.28 91.86 90.6 89.71L142.68 55.89C146.36 53.5 151.1 53.5 154.77 55.89L206.85 89.71C210.17 91.87 210.17 96.73 206.85 98.88L154.77 132.7C151.09 135.09 146.35 135.09 142.68 132.7Z" fill="#FAAF00"/><path d="M226.43 78.61 174.35 44.79C171.03 42.63 171.03 37.77 174.35 35.62L226.43 1.79C230.11-0.6 234.85-0.6 238.52 1.79L290.6 35.61C293.92 37.77 293.92 42.63 290.6 44.78L238.52 78.6C234.84 80.99 230.1 80.99 226.43 78.6Z" fill="#FAAF00"/><path d="M319.53 138.95 267.45 105.13C264.13 102.97 264.13 98.11 267.45 95.96L319.53 62.14C323.21 59.75 327.95 59.75 331.62 62.14L383.7 95.96C387.02 98.12 387.02 102.98 383.7 105.13L331.62 138.95C327.94 141.34 323.2 141.34 319.53 138.95Z" fill="#FAAF00"/><path d="M360.7 156.29 412.78 122.47C416.46 120.08 421.2 120.08 424.87 122.47L476.95 156.29C480.27 158.45 480.27 163.31 476.95 165.46L424.87 199.28C421.19 201.67 416.45 201.67 412.78 199.28L360.7 165.46C357.38 163.3 357.38 158.44 360.7 156.29Z" fill="#FAAF00"/><path d="M276.95 210.38 329.03 176.56C332.71 174.17 337.45 174.17 341.12 176.56L393.2 210.38C396.52 212.54 396.52 217.4 393.2 219.55L341.12 253.37C337.44 255.76 332.7 255.76 329.03 253.37L276.95 219.55C273.63 217.39 273.63 212.53 276.95 210.38Z" fill="#FAAF00"/></g><path d="M472.65 286.83 259.37 425.34C247.26 433.2 231.65 433.2 219.54 425.34L6.8 287.18C3.01 284.72 0.8 277.62 0.18 275.37 0.06 274.93 -2.77556e-16 274.68 -2.77556e-16 274.68L-2.77556e-16 308.29 0.08 308.29C-0.15 313.31 2.05 318.43 6.8 321.52L219.53 459.67C231.64 467.53 247.25 467.53 259.36 459.67L472.64 321.16C477.28 318.14 479.52 313.2 479.41 308.29L479.45 308.29 479.45 274.33C479.45 274.33 479.42 274.46 479.36 274.69 478.89 276.46 476.65 284.23 472.65 286.83Z" fill="#FAAF00"/></g><g><path d="M472.65 216.73 259.37 355.24C247.26 363.1 231.65 363.1 219.54 355.24L6.8 217.09C2.72 214.44 0.47 206.42 0.06 204.86 0.02 204.69-0.01 204.59-0.01 204.59L-0.01 238.2 0.07 238.2C-0.16 243.22 2.04 248.34 6.79 251.43L219.52 389.58C231.63 397.44 247.24 397.44 259.35 389.58L472.63 251.07C477.27 248.05 479.51 243.11 479.4 238.2L479.44 238.2 479.44 204.24C479.44 204.24 479.42 204.34 479.37 204.53 478.95 206.14 476.7 214.1 472.64 216.74Z" fill="#00508C"/><g><path d="M1840.7 156.82C1790.76 156.82 1750.11 197.47 1750.11 247.42L1750.11 247.42C1750.11 247.42 1750.09 247.42 1750.09 247.42L1750.09 364.71 1784.77 364.71 1784.77 247.42 1784.77 247.42C1784.77 247.42 1784.77 247.42 1784.77 247.42 1784.77 216.53 1809.81 191.5 1840.69 191.5 1871.57 191.5 1896.61 216.54 1896.61 247.42 1896.61 247.42 1896.61 247.42 1896.61 247.42L1896.61 247.42 1896.61 364.71 1931.29 364.71 1931.29 247.42 1931.29 247.42C1931.29 197.47 1890.64 156.82 1840.69 156.82Z" fill="#00508C"/><path d="M664.6 364.71 701.03 364.71 701.03 134.56 802.5 134.56 802.5 100.86 577.2 100.86 550.36 134.56 664.6 134.56 664.6 364.71Z" fill="#00508C"/><path d="M863.5 156.84C803.66 156.84 756.39 204.81 756.39 264.45 756.39 324.09 804.1 371.19 863.5 371.19 922.9 371.19 970.62 324.09 970.62 264.45 970.62 204.81 923.35 156.84 863.5 156.84ZM863.5 339.2C820.57 339.2 791.08 305.5 791.08 264.01 791.08 222.52 820.57 188.82 863.5 188.82 906.43 188.82 935.92 222.95 935.92 264.01 935.92 305.07 906.43 339.2 863.5 339.2Z" fill="#00508C"/><path d="M1608.18 156.84C1548.34 156.84 1501.07 204.81 1501.07 264.45 1501.07 324.09 1548.78 371.19 1608.18 371.19 1667.58 371.19 1715.3 324.09 1715.3 264.45 1715.3 204.81 1668.03 156.84 1608.18 156.84ZM1608.18 339.2C1565.25 339.2 1535.76 305.5 1535.76 264.01 1535.76 222.52 1565.25 188.82 1608.18 188.82 1651.11 188.82 1680.6 222.95 1680.6 264.01 1680.6 305.07 1651.11 339.2 1608.18 339.2Z" fill="#00508C"/><path d="M1141.01 194.39C1146.7 184.9 1153.53 176.18 1161.29 168.42 1146.73 161.01 1130.19 156.84 1112.53 156.84 1052.86 156.84 1005.71 204.51 1005.43 263.9L1005.43 364.72 1040.12 364.72 1040.12 263.9C1040.17 222.9 1069.65 188.82 1112.54 188.82 1122.9 188.82 1132.46 190.8 1141.02 194.39Z" fill="#00508C"/><g><rect x="1205.53" y="100.86" width="34.68" height="34.83" fill="#00508C"/><rect x="1205.53" y="156.82" width="34.68" height="207.89" fill="#00508C"/></g><path d="M1840.7 156.82C1790.76 156.82 1750.11 197.47 1750.11 247.42L1750.11 247.42C1750.11 247.42 1750.09 247.42 1750.09 247.42L1750.09 364.71 1784.77 364.71 1784.77 247.42 1784.77 247.42C1784.77 247.42 1784.77 247.42 1784.77 247.42 1784.77 216.53 1809.81 191.5 1840.69 191.5 1871.57 191.5 1896.61 216.54 1896.61 247.42 1896.61 247.42 1896.61 247.42 1896.61 247.42L1896.61 247.42 1896.61 364.71 1931.29 364.71 1931.29 247.42 1931.29 247.42C1931.29 197.47 1890.64 156.82 1840.69 156.82Z" fill="#00508C"/><path d="M1469.54 156.84 1319.85 156.84 1294.4 188.8 1294.4 188.96 1425.94 188.96 1294.4 332.67 1294.4 364.71 1469.54 364.71 1469.54 332.59 1337.78 332.59 1469.51 188.96 1469.54 188.96 1469.54 156.84Z" fill="#00508C"/><path d="M1949.44 107.36 1931.71 107.36 1931.71 100.86 1975.71 100.86 1975.71 107.36 1957.98 107.36 1957.98 156.91 1949.45 156.91 1949.45 107.36ZM1987.75 100.86 2001.56 100.86 2018.08 144.05 2034.59 100.86 2048.4 100.86 2048.4 156.91 2039.87 156.91 2039.87 108.17 2039.6 108.17 2020.92 156.91 2015.1 156.91 1996.55 108.17 1996.28 108.17 1996.28 156.91 1987.75 156.91 1987.75 100.86Z" fill="#00508C"/></g></g></svg>